# xmcd
#
# Track frame offsets:
#	150
#	11790
#	28644
#	45417
#	60782
#	77280
#	97852
#	112047
#	132792
#	146580
#	165652
#
# Disc length: 2410 seconds
#
# Revision: 1
# Processed by: cddbd v1.5.2PL0 Copyright (c) Steve Scherf et al.
# Submitted via: audiograbber 1.83.01
#
DISCID=7a09680b
DTITLE=Wade Richardson - Hang On For The Ride
DYEAR=1997
DGENRE=Country
TTITLE0=Another Lover
TTITLE1=Hang On For The Ride
TTITLE2=Someday
TTITLE3=When It's Love
TTITLE4=I Just Wanna Be Bayou
TTITLE5=My Lips Miss Yours
TTITLE6=Every Time You're Near
TTITLE7=Something Between Us
TTITLE8=When She Heats Up
TTITLE9=21 To 17
TTITLE10=God's Watchin' Over You (Sweet Lullaby)
EXTD=
EXTT0=
EXTT1=
EXTT2=
EXTT3=
EXTT4=
EXTT5=
EXTT6=
EXTT7=
EXTT8=
EXTT9=
EXTT10=
PLAYORDER=
